{
  "lessons": [
    {
      "id": 2,
      "day": 2,
      "title": "Two Finger Dance",
      "introduction": "Today we add your index finger! Keep your thumb on C and place your index finger on the very next white key - that's D. We'll alternate between them: C, D, C, D. Keep your wrist relaxed and let each finger do its own work.",
      "tempo": 60,
      "timeSignature": "4/4",
      "notes": [
        { "pitch": 60, "startBeat": 1.0, "duration": 1.0, "velocity": 80, "finger": "RH1" },
        { "pitch": 62, "startBeat": 2.0, "duration": 1.0, "velocity": 80, "finger": "RH2" },
        { "pitch": 60, "startBeat": 3.0, "duration": 1.0, "velocity": 80, "finger": "RH1" },
        { "pitch": 62, "startBeat": 4.0, "duration": 1.0, "velocity": 80, "finger": "RH2" },
        { "pitch": 60, "startBeat": 5.0, "duration": 1.0, "velocity": 80, "finger": "RH1" },
        { "pitch": 62, "startBeat": 6.0, "duration": 1.0, "velocity": 80, "finger": "RH2" },
        { "pitch": 60, "startBeat": 7.0, "duration": 1.0, "velocity": 80, "finger": "RH1" },
        { "pitch": 62, "startBeat": 8.0, "duration": 1.0, "velocity": 80, "finger": "RH2" }
      ]
    },
    {
      "id": 31,
      "day": 31,
      "title": "Mary Had a Little Lamb - With Expression",
      "introduction": "You know this melody! But today we'll add feeling. Play the first phrase (Mary had a little lamb) at a comfortable medium volume. Then play 'little lamb, little lamb' softer - like an echo. Finally, bring the volume back up for the ending. Watch the velocity targets change throughout the piece.",
      "tempo": 80,
      "timeSignature": "4/4",
      "notes": [
        { "pitch": 64, "startBeat": 1.0, "duration": 1.0, "velocity": 85, "finger": "RH3" },
        { "pitch": 62, "startBeat": 2.0, "duration": 1.0, "velocity": 85, "finger": "RH2" },
        { "pitch": 60, "startBeat": 3.0, "duration": 1.0, "velocity": 85, "finger": "RH1" },
        { "pitch": 62, "startBeat": 4.0, "duration": 1.0, "velocity": 85, "finger": "RH2" },
        { "pitch": 64, "startBeat": 5.0, "duration": 1.0, "velocity": 85, "finger": "RH3" },
        { "pitch": 64, "startBeat": 6.0, "duration": 1.0, "velocity": 85, "finger": "RH3" },
        { "pitch": 64, "startBeat": 7.0, "duration": 2.0, "velocity": 85, "finger": "RH3" },
        { "pitch": 62, "startBeat": 9.0, "duration": 1.0, "velocity": 60, "finger": "RH2" },
        { "pitch": 62, "startBeat": 10.0, "duration": 1.0, "velocity": 60, "finger": "RH2" },
        { "pitch": 62, "startBeat": 11.0, "duration": 2.0, "velocity": 60, "finger": "RH2" },
        { "pitch": 64, "startBeat": 13.0, "duration": 1.0, "velocity": 60, "finger": "RH3" },
        { "pitch": 67, "startBeat": 14.0, "duration": 1.0, "velocity": 60, "finger": "RH5" },
        { "pitch": 67, "startBeat": 15.0, "duration": 2.0, "velocity": 60, "finger": "RH5" },
        { "pitch": 64, "startBeat": 17.0, "duration": 1.0, "velocity": 85, "finger": "RH3" },
        { "pitch": 62, "startBeat": 18.0, "duration": 1.0, "velocity": 85, "finger": "RH2" },
        { "pitch": 60, "startBeat": 19.0, "duration": 1.0, "velocity": 85, "finger": "RH1" },
        { "pitch": 62, "startBeat": 20.0, "duration": 1.0, "velocity": 85, "finger": "RH2" },
        { "pitch": 64, "startBeat": 21.0, "duration": 1.0, "velocity": 88, "finger": "RH3" },
        { "pitch": 64, "startBeat": 22.0, "duration": 1.0, "velocity": 88, "finger": "RH3" },
        { "pitch": 64, "startBeat": 23.0, "duration": 1.0, "velocity": 88, "finger": "RH3" },
        { "pitch": 64, "startBeat": 24.0, "duration": 1.0, "velocity": 88, "finger": "RH3" },
        { "pitch": 62, "startBeat": 25.0, "duration": 1.0, "velocity": 90, "finger": "RH2" },
        { "pitch": 62, "startBeat": 26.0, "duration": 1.0, "velocity": 90, "finger": "RH2" },
        { "pitch": 64, "startBeat": 27.0, "duration": 1.0, "velocity": 90, "finger": "RH3" },
        { "pitch": 62, "startBeat": 28.0, "duration": 1.0, "velocity": 90, "finger": "RH2" },
        { "pitch": 60, "startBeat": 29.0, "duration": 4.0, "velocity": 92, "finger": "RH1" }
      ]
    },
    {
      "id": 330,
      "day": 330,
      "title": "Ode to Joy - Two Hands Together",
      "introduction": "This is a milestone piece! Your right hand plays the famous melody while your left hand provides harmonic support with whole-note chords. The left hand should be softer than the right - it's the foundation, not the star. Play the C major chord with fingers 5-3-1 (pinky on C, middle finger on E, thumb on G). Keep both hands relaxed and listen for the blend.",
      "tempo": 90,
      "timeSignature": "4/4",
      "notes": [
        { "pitch": 48, "startBeat": 1.0, "duration": 4.0, "velocity": 70, "finger": "LH5" },
        { "pitch": 52, "startBeat": 1.0, "duration": 4.0, "velocity": 70, "finger": "LH3" },
        { "pitch": 55, "startBeat": 1.0, "duration": 4.0, "velocity": 70, "finger": "LH1" },
        { "pitch": 64, "startBeat": 1.0, "duration": 1.0, "velocity": 85, "finger": "RH3" },
        { "pitch": 64, "startBeat": 2.0, "duration": 1.0, "velocity": 85, "finger": "RH3" },
        { "pitch": 65, "startBeat": 3.0, "duration": 1.0, "velocity": 85, "finger": "RH4" },
        { "pitch": 67, "startBeat": 4.0, "duration": 1.0, "velocity": 85, "finger": "RH5" },

        { "pitch": 43, "startBeat": 5.0, "duration": 4.0, "velocity": 70, "finger": "LH5" },
        { "pitch": 47, "startBeat": 5.0, "duration": 4.0, "velocity": 70, "finger": "LH3" },
        { "pitch": 50, "startBeat": 5.0, "duration": 4.0, "velocity": 70, "finger": "LH1" },
        { "pitch": 67, "startBeat": 5.0, "duration": 1.0, "velocity": 85, "finger": "RH5" },
        { "pitch": 65, "startBeat": 6.0, "duration": 1.0, "velocity": 85, "finger": "RH4" },
        { "pitch": 64, "startBeat": 7.0, "duration": 1.0, "velocity": 85, "finger": "RH3" },
        { "pitch": 62, "startBeat": 8.0, "duration": 1.0, "velocity": 85, "finger": "RH2" },

        { "pitch": 48, "startBeat": 9.0, "duration": 4.0, "velocity": 70, "finger": "LH5" },
        { "pitch": 52, "startBeat": 9.0, "duration": 4.0, "velocity": 70, "finger": "LH3" },
        { "pitch": 55, "startBeat": 9.0, "duration": 4.0, "velocity": 70, "finger": "LH1" },
        { "pitch": 60, "startBeat": 9.0, "duration": 1.0, "velocity": 85, "finger": "RH1" },
        { "pitch": 60, "startBeat": 10.0, "duration": 1.0, "velocity": 85, "finger": "RH1" },
        { "pitch": 62, "startBeat": 11.0, "duration": 1.0, "velocity": 85, "finger": "RH2" },
        { "pitch": 64, "startBeat": 12.0, "duration": 1.0, "velocity": 85, "finger": "RH3" },

        { "pitch": 48, "startBeat": 13.0, "duration": 4.0, "velocity": 70, "finger": "LH5" },
        { "pitch": 52, "startBeat": 13.0, "duration": 4.0, "velocity": 70, "finger": "LH3" },
        { "pitch": 55, "startBeat": 13.0, "duration": 4.0, "velocity": 70, "finger": "LH1" },
        { "pitch": 64, "startBeat": 13.0, "duration": 1.0, "velocity": 85, "finger": "RH3" },
        { "pitch": 62, "startBeat": 14.0, "duration": 1.0, "velocity": 85, "finger": "RH2" },
        { "pitch": 62, "startBeat": 15.0, "duration": 2.0, "velocity": 85, "finger": "RH2" },

        { "pitch": 48, "startBeat": 17.0, "duration": 4.0, "velocity": 70, "finger": "LH5" },
        { "pitch": 52, "startBeat": 17.0, "duration": 4.0, "velocity": 70, "finger": "LH3" },
        { "pitch": 55, "startBeat": 17.0, "duration": 4.0, "velocity": 70, "finger": "LH1" },
        { "pitch": 64, "startBeat": 17.0, "duration": 1.0, "velocity": 85, "finger": "RH3" },
        { "pitch": 64, "startBeat": 18.0, "duration": 1.0, "velocity": 85, "finger": "RH3" },
        { "pitch": 65, "startBeat": 19.0, "duration": 1.0, "velocity": 85, "finger": "RH4" },
        { "pitch": 67, "startBeat": 20.0, "duration": 1.0, "velocity": 85, "finger": "RH5" },

        { "pitch": 43, "startBeat": 21.0, "duration": 4.0, "velocity": 70, "finger": "LH5" },
        { "pitch": 47, "startBeat": 21.0, "duration": 4.0, "velocity": 70, "finger": "LH3" },
        { "pitch": 50, "startBeat": 21.0, "duration": 4.0, "velocity": 70, "finger": "LH1" },
        { "pitch": 67, "startBeat": 21.0, "duration": 1.0, "velocity": 85, "finger": "RH5" },
        { "pitch": 65, "startBeat": 22.0, "duration": 1.0, "velocity": 85, "finger": "RH4" },
        { "pitch": 64, "startBeat": 23.0, "duration": 1.0, "velocity": 85, "finger": "RH3" },
        { "pitch": 62, "startBeat": 24.0, "duration": 1.0, "velocity": 85, "finger": "RH2" },

        { "pitch": 48, "startBeat": 25.0, "duration": 4.0, "velocity": 72, "finger": "LH5" },
        { "pitch": 52, "startBeat": 25.0, "duration": 4.0, "velocity": 72, "finger": "LH3" },
        { "pitch": 55, "startBeat": 25.0, "duration": 4.0, "velocity": 72, "finger": "LH1" },
        { "pitch": 60, "startBeat": 25.0, "duration": 1.0, "velocity": 88, "finger": "RH1" },
        { "pitch": 60, "startBeat": 26.0, "duration": 1.0, "velocity": 88, "finger": "RH1" },
        { "pitch": 62, "startBeat": 27.0, "duration": 1.0, "velocity": 90, "finger": "RH2" },
        { "pitch": 64, "startBeat": 28.0, "duration": 1.0, "velocity": 90, "finger": "RH3" },

        { "pitch": 48, "startBeat": 29.0, "duration": 4.0, "velocity": 75, "finger": "LH5" },
        { "pitch": 52, "startBeat": 29.0, "duration": 4.0, "velocity": 75, "finger": "LH3" },
        { "pitch": 55, "startBeat": 29.0, "duration": 4.0, "velocity": 75, "finger": "LH1" },
        { "pitch": 62, "startBeat": 29.0, "duration": 1.0, "velocity": 92, "finger": "RH2" },
        { "pitch": 60, "startBeat": 30.0, "duration": 1.0, "velocity": 92, "finger": "RH1" },
        { "pitch": 60, "startBeat": 31.0, "duration": 2.0, "velocity": 95, "finger": "RH1" }
      ]
    }
  ]
}