<?xml version="1.0" encoding="UTF-8" standalone="no"?>
<!-- Created with Inkscape (http://www.inkscape.org/) -->

<svg
   width="91.355484mm"
   height="84.095093mm"
   viewBox="0 0 91.355484 84.095093"
   version="1.1"
   id="svg1"
   xml:space="preserve"
   inkscape:export-filename="glsl.svg"
   inkscape:export-xdpi="96"
   inkscape:export-ydpi="96"
   xmlns:inkscape="http://www.inkscape.org/namespaces/inkscape"
   xmlns:sodipodi="http://sodipodi.sourceforge.net/DTD/sodipodi-0.dtd"
   xmlns="http://www.w3.org/2000/svg"
   xmlns:svg="http://www.w3.org/2000/svg"><sodipodi:namedview
     id="namedview1"
     pagecolor="#ffffff"
     bordercolor="#000000"
     borderopacity="0.25"
     inkscape:showpageshadow="2"
     inkscape:pageopacity="0.0"
     inkscape:pagecheckerboard="0"
     inkscape:deskcolor="#d1d1d1"
     inkscape:document-units="mm" /><defs
     id="defs1"><style
       id="style1">
      .cls-1, .cls-2, .cls-3, .cls-4, .cls-5 {
        fill-rule: evenodd;
        stroke-linejoin: round;
      }

      .cls-6 {
        fill-rule: evenodd;
      }

      .cls-1 {
        fill: #005a9c;
        stroke: #005a9c;
      }

      .cls-2 {
        fill: #0066b0;
        stroke: #0066b0;
      }

      .cls-3 {
        fill: #0076cc;
        stroke: #0076cc;
      }

      .cls-4 {
        fill: #0086e8;
        stroke: #0086e8;
      }

      .cls-5 {
        fill: #0093ff;
        stroke: #0093ff;
      }
    </style></defs><g
     inkscape:label="Layer 1"
     inkscape:groupmode="layer"
     id="layer1"
     transform="translate(-232.12519,-112.64243)"><rect
       style="fill:#ffffff;fill-opacity:1;fill-rule:evenodd;stroke-width:0.247;stroke-dasharray:none"
       id="rect1"
       width="70.759125"
       height="84.095085"
       x="232.12518"
       y="112.64243"
       ry="7.6877975"
       rx="5.3343902"
       inkscape:export-filename="glsl_audio.svg"
       inkscape:export-xdpi="96"
       inkscape:export-ydpi="96" /><g
       fill="#ba2a8d"
       id="g10"
       transform="matrix(0.12878577,0.00229285,-0.00291592,0.129019,196.0053,218.51825)"><path
         d="m 457.07994,-335.72294 c -5.66304,2.4682 -11.38972,3.63735 -17.18002,3.63735 -9.09906,0 -17.30729,-1.62382 -24.62471,-4.87145 -7.25379,-3.24764 -13.42587,-7.72938 -18.45262,-13.38025 -5.02675,-5.71585 -8.84453,-12.34102 -11.51698,-20.07039 -2.67245,-7.66441 -4.00867,-15.97836 -4.00867,-24.81192 0,-9.09337 1.33622,-17.53722 4.00867,-25.33155 2.67245,-7.79432 6.49023,-14.61435 11.45335,-20.39514 4.96312,-5.78078 11.1352,-10.32747 18.38899,-13.64006 7.25379,-3.31259 15.46203,-4.93641 24.62471,-4.93641 6.10845,0 12.02601,0.9743 17.75269,2.79297 5.72668,1.88362 10.88068,4.6766 15.52566,8.31395 4.64496,3.63735 8.39912,8.11908 11.45334,13.51015 2.9906,5.32612 4.83587,11.49662 5.53579,18.38161 h -25.00648 c -1.52712,-6.82003 -4.58134,-11.88634 -9.03542,-15.32883 -4.45409,-3.37755 -9.86261,-5.13127 -16.16196,-5.13127 -5.91756,0 -10.88068,1.16915 -15.01661,3.50745 -4.13593,2.33829 -7.44468,5.45603 -9.98987,9.35319 -2.54519,3.89716 -4.39045,8.37889 -5.59942,13.38025 -1.14533,5.00135 -1.78163,10.19757 -1.78163,15.52369 0,5.13127 0.57267,10.06767 1.78163,14.93912 1.20897,4.87145 3.05423,9.15832 5.59942,13.05548 2.54519,3.89717 5.91756,6.94994 9.98987,9.28824 4.13593,2.33829 9.09905,3.50745 15.01661,3.50745 8.65365,0 15.3984,-2.2084 20.107,-6.69013 4.7086,-4.48173 7.50831,-10.977 8.27186,-19.42086 h -26.27907 v -20.00542 h 49.94933 v 65.73212 h -16.60735 l -2.67245,-13.76997 c -4.64498,6.10555 -9.86262,10.39242 -15.52566,12.86063 z"
         id="path5"
         style="fill:#c00028;fill-opacity:1;stroke-width:0.642878" /><path
         d="m 534.39006,-456.40502 v 98.92293 h 58.03012 v 22.60353 h -84.18194 v -121.52646 z"
         id="path6"
         style="fill:#c00028;fill-opacity:1;stroke-width:0.642878" /><path
         d="m 729.30588,-456.09584 v 98.92294 h 58.0301 v 22.60353 h -84.18193 v -121.52647 z"
         id="path6-7"
         style="fill:#c00028;fill-opacity:1;stroke-width:0.642878" /><path
         d="m 766.10281,-319.80953 c -39.95946,24.81192 -99.83504,38.90665 -166.64625,38.90665 -120.32382,0 -217.86818,-51.18271 -217.86818,-114.25177 0,-63.06905 97.54436,-114.25177 217.86818,-114.25177 67.06574,0 127.1322,14.35455 167.09166,39.36133 -43.58636,-41.76458 -121.78729,-71.18814 -211.25069,-71.18814 -136.99481,0 -248.02868,65.40735 -248.02868,146.07858 0,80.73619 111.03387,146.2085 247.96505,146.2085 89.08162,0 167.1553,-29.29367 210.86891,-70.86338 z"
         id="path7"
         style="fill:#c00028;fill-opacity:1;stroke-width:0.642878" /><path
         d="m 621.55117,-375.47398 c 0,16.17321 12.34407,22.47362 26.34249,22.47362 9.16261,0 23.16105,-2.72801 23.16105,-15.13398 0,-13.12044 -17.81618,-15.32882 -35.37785,-20.07037 -17.68894,-4.74154 -35.50511,-11.75644 -35.50511,-34.55483 0,-24.87687 23.03378,-36.76322 44.54045,-36.76322 24.87903,0 47.72193,11.04196 47.72193,39.16647 h -25.32444 c -0.82716,-14.61435 -11.00785,-18.3816 -23.54281,-18.3816 -8.33543,0 -18.00707,3.57239 -18.00707,13.76996 0,9.35319 5.663,10.58728 35.50511,18.38161 8.65357,2.20839 35.37785,7.85928 35.37785,35.39922 0,22.27876 -17.1799,38.97161 -49.50353,38.97161 -26.34252,0 -51.03066,-13.25036 -50.71251,-43.25849 z"
         id="path9"
         style="fill:#c00028;fill-opacity:1;stroke-width:0.642878" /></g><g
       id="g4"
       transform="matrix(3.3072917,0,0,3.3072917,906.13511,201.99273)">
		<path
   fill="#394240"
   d="m -177.44165,-11.18946 h -2.53763 c -0.70142,0 -1.26897,0.845863 -1.26897,1.8912534 0,1.0453901 0.56755,1.8912502 1.26897,1.8912502 h 2.53763 c 0.70142,0 1.26897,-0.8458601 1.26897,-1.8912502 0,-1.0453904 -0.56755,-1.8912534 -1.26897,-1.8912534 z"
   id="path1-3-4"
   style="fill:#0000ff;stroke-width:0.387294" /><path
   fill="#394240"
   d="m -177.44681,-16.253771 h -2.53763 c -0.70142,0 -1.26897,0.845863 -1.26897,1.891253 0,1.04539 0.56755,1.891251 1.26897,1.891251 h 2.53763 c 0.70142,0 1.26897,-0.845861 1.26897,-1.891251 0,-1.04539 -0.56755,-1.891253 -1.26897,-1.891253 z"
   id="path1-3-4-7"
   style="fill:#00d400;stroke-width:0.387294" /><path
   fill="#394240"
   d="m -177.45357,-21.315073 h -2.53763 c -0.70142,0 -1.26897,0.845863 -1.26897,1.891253 0,1.04539 0.56755,1.891251 1.26897,1.891251 h 2.53763 c 0.70142,0 1.26897,-0.845861 1.26897,-1.891251 0,-1.04539 -0.56755,-1.891253 -1.26897,-1.891253 z"
   id="path1-3-4-7-5"
   style="fill:#d40000;stroke-width:0.387294" />
		
		
		
	</g></g></svg>
