<?xml version="1.0" encoding="UTF-8" standalone="no"?>
<!-- Created with Inkscape (http://www.inkscape.org/) -->

<svg
   width="98.204582mm"
   height="84.095093mm"
   viewBox="0 0 98.204582 84.095093"
   version="1.1"
   id="svg1"
   xml:space="preserve"
   inkscape:export-filename="glsl.svg"
   inkscape:export-xdpi="96"
   inkscape:export-ydpi="96"
   xmlns:inkscape="http://www.inkscape.org/namespaces/inkscape"
   xmlns:sodipodi="http://sodipodi.sourceforge.net/DTD/sodipodi-0.dtd"
   xmlns="http://www.w3.org/2000/svg"
   xmlns:svg="http://www.w3.org/2000/svg"><sodipodi:namedview
     id="namedview1"
     pagecolor="#ffffff"
     bordercolor="#000000"
     borderopacity="0.25"
     inkscape:showpageshadow="2"
     inkscape:pageopacity="0.0"
     inkscape:pagecheckerboard="0"
     inkscape:deskcolor="#d1d1d1"
     inkscape:document-units="mm" /><defs
     id="defs1"><style
       id="style1">
      .cls-1, .cls-2, .cls-3, .cls-4, .cls-5 {
        fill-rule: evenodd;
        stroke-linejoin: round;
      }

      .cls-6 {
        fill-rule: evenodd;
      }

      .cls-1 {
        fill: #005a9c;
        stroke: #005a9c;
      }

      .cls-2 {
        fill: #0066b0;
        stroke: #0066b0;
      }

      .cls-3 {
        fill: #0076cc;
        stroke: #0076cc;
      }

      .cls-4 {
        fill: #0086e8;
        stroke: #0086e8;
      }

      .cls-5 {
        fill: #0093ff;
        stroke: #0093ff;
      }
    </style></defs><g
     inkscape:label="Layer 1"
     inkscape:groupmode="layer"
     id="layer1"
     transform="translate(-231.39409,-207.54809)"><rect
       style="fill:#ffffff;fill-opacity:1;fill-rule:evenodd;stroke-width:0.247;stroke-dasharray:none"
       id="rect1-0-5"
       width="70.759125"
       height="84.095085"
       x="231.3941"
       y="207.54808"
       ry="7.6877975"
       rx="5.3343902" /><g
       id="g3"
       transform="matrix(0.0946468,0,0,0.08621681,232.29842,240.33028)"><path
         id="Triangle_4"
         data-name="Triangle 4"
         class="cls-4"
         d="M 626.63,295.5 566.441,191.25 h 120.55 z" /><path
         id="Triangle_5"
         data-name="Triangle 5"
         class="cls-5"
         d="m 626.63,87.001 -60.189,104.25 h 120.55 z" /><path
         id="Triangle_3"
         data-name="Triangle 3"
         class="cls-3"
         d="M 506.26,504 385.88,295.5 626.64,295.498 Z" /><path
         id="Triangle_2"
         data-name="Triangle 2"
         class="cls-2"
         d="M 506.26,87 385.88,295.5 626.64,295.498 Z" /><path
         id="Triangle_1"
         data-name="Triangle 1"
         class="cls-1"
         d="M 265.5,504 24.74,87 h 481.51 z" /></g><g
       id="g4"
       transform="matrix(3.3072917,0,0,3.3072917,906.13511,201.99273)">
		<path
   fill="#394240"
   d="m -175.80342,12.999311 h -2.96084 c -0.8184,0 -1.4806,0.615053 -1.4806,1.375188 0,0.760135 0.6622,1.375187 1.4806,1.375187 h 2.96084 c 0.81839,0 1.4806,-0.615052 1.4806,-1.375187 0,-0.760135 -0.66221,-1.375188 -1.4806,-1.375188 z"
   id="path1-3"
   style="fill:#00ccff;stroke-width:0.35673" />
		<path
   fill="#394240"
   d="m -179.61154,10.065005 2.56478,-1.3751877 c 0.70846,-0.379896 0.95129,-1.220823 0.54079,-1.87885 -0.40791,-0.658027 -1.31293,-0.883558 -2.02102,-0.503663 l -2.56515,1.375188 c -0.70846,0.379896 -0.95128,1.220823 -0.54079,1.8785058 0.40791,0.6583709 1.31293,0.8839019 2.02139,0.5040069 z"
   id="path2"
   style="fill:#00ccff;stroke-width:0.35673" />
		<path
   fill="#394240"
   d="m -177.04676,20.058837 -2.56478,-1.374844 c -0.70846,-0.379896 -1.612,-0.154365 -2.02139,0.503318 -0.40901,0.658028 -0.16767,1.498611 0.54079,1.87885 l 2.56515,1.375188 c 0.70809,0.379896 1.61311,0.154365 2.0225,-0.503662 0.40938,-0.658028 0.16619,-1.498611 -0.54227,-1.87885 z"
   id="path3"
   style="fill:#00ccff;stroke-width:0.35673" />
		
	</g></g></svg>
